# Blender 4.2.1 LTS
# www.blender.org
o Icosphere
v 0.000000 -0.020000 0.000000
v 0.144720 0.090557 0.105144
v -0.055277 0.090557 0.170128
v -0.178885 0.090557 0.000000
v -0.055277 0.090557 -0.170128
v 0.144720 0.090557 -0.105144
v 0.055277 0.269443 0.170128
v -0.144720 0.269443 0.105144
v -0.144720 0.269443 -0.105144
v 0.055277 0.269443 -0.170128
v 0.178885 0.269443 0.000000
v 0.000000 0.380000 0.000000
vn -0.0000 -1.0000 -0.0000
vn 0.7236 -0.4472 0.5257
vn -0.2764 -0.4472 0.8507
vn -0.8944 -0.4472 -0.0000
vn -0.2764 -0.4472 -0.8507
vn 0.7236 -0.4472 -0.5257
vn 0.2764 0.4472 0.8507
vn -0.7236 0.4472 0.5257
vn -0.7236 0.4472 -0.5257
vn 0.2764 0.4472 -0.8507
vn 0.8944 0.4472 -0.0000
vn -0.0000 1.0000 -0.0000
s 1
f 1//1 2//2 3//3
f 2//2 1//1 6//6
f 1//1 3//3 4//4
f 1//1 4//4 5//5
f 1//1 5//5 6//6
f 2//2 6//6 11//11
f 3//3 2//2 7//7
f 4//4 3//3 8//8
f 5//5 4//4 9//9
f 6//6 5//5 10//10
f 2//2 11//11 7//7
f 3//3 7//7 8//8
f 4//4 8//8 9//9
f 5//5 9//9 10//10
f 6//6 10//10 11//11
f 7//7 11//11 12//12
f 8//8 7//7 12//12
f 9//9 8//8 12//12
f 10//10 9//9 12//12
f 11//11 10//10 12//12
